# 3ds Max Wavefront OBJ Exporter v0.97b - (c)2007 guruware
# File Created: 05.11.2011 16:34:00

mtllib BasicSkew.mtl

#
# object Box03
#

v  0.250000 -0.250000 0.350000
v  -0.350000 -0.250000 -0.250000
v  -0.150000 -0.250000 -0.250000
v  0.250000 -0.250000 0.150000
v  0.250000 0.250000 0.350000
v  0.250000 0.250000 0.150000
v  -0.150000 0.250000 -0.250000
v  -0.350000 0.250000 -0.250000
# 8 vertices

vn 0.000000 -1.000000 -0.000000
vn 0.000000 1.000000 -0.000000
vn 1.000000 0.000000 0.000000
vn 0.707107 0.000000 -0.707107
vn 0.000000 0.000000 -1.000000
vn -0.707107 0.000000 0.707107
# 6 vertex normals

vt 0.523171 0.297790 0.500000
vt 0.523170 1.146318 0.500000
vt 0.381749 1.004897 0.500000
vt 0.381749 0.439211 0.500000
vt 0.476829 0.297790 1.000000
vt 0.618251 0.439211 1.000000
vt 0.618251 1.004897 1.000000
vt 0.476830 1.146318 1.000000
vt 0.476829 0.500000 0.297790
vt 0.618251 0.500000 0.439211
vt 0.618251 1.000000 0.439211
vt 0.476829 1.000000 0.297790
vt 0.439211 0.500000 0.618251
vt 1.004897 0.500000 0.618251
vt 1.004897 1.000000 0.618251
vt 0.439211 1.000000 0.618251
vt 1.146318 0.500000 0.476830
vt 1.146318 1.000000 0.476830
vt -0.146318 0.500000 0.476830
vt 0.702210 0.500000 0.476829
vt 0.702210 1.000000 0.476829
vt -0.146318 1.000000 0.476830
# 22 texture coords

g Box03
usemtl 01___Default
s 2
f 1/1/1 2/2/1 3/3/1 
f 3/3/1 4/4/1 1/1/1 
s 4
f 5/5/2 6/6/2 7/7/2 
f 7/7/2 8/8/2 5/5/2 
s 8
f 1/9/3 4/10/3 6/11/3 
f 6/11/3 5/12/3 1/9/3 
s 16
f 4/13/4 3/14/4 7/15/4 
f 7/15/4 6/16/4 4/13/4 
s 32
f 3/14/5 2/17/5 8/18/5 
f 8/18/5 7/15/5 3/14/5 
s 64
f 2/19/6 1/20/6 5/21/6 
f 5/21/6 8/22/6 2/19/6 
# 12 faces

