# 3ds Max Wavefront OBJ Exporter v0.97b - (c)2007 guruware
# File Created: 05.11.2011 23:45:29

mtllib BasicFloor.mtl

#
# object Box02
#

v  0.250000 -0.050000 0.250000
v  -0.250000 -0.050000 0.250000
v  -0.250000 -0.050000 -0.250000
v  0.000000 -0.050000 -0.000000
v  0.250000 0.050000 0.250000
v  0.000000 0.050000 -0.000000
v  -0.250000 0.050000 -0.250000
v  -0.250000 0.050000 0.250000
# 8 vertices

vn 0.000000 -1.000000 -0.000000
vn -0.000000 0.000000 -1.000000
vn 0.000000 1.000000 -0.000000
vn 0.707107 0.000000 -0.707107
vn -1.000000 0.000000 0.000000
vn 0.000000 0.000000 1.000000
# 6 vertex normals

vt 0.999501 0.000500 0.000499
vt 0.999500 0.999501 0.000499
vt 0.000499 0.999500 0.000499
vt 0.500000 0.500000 0.000499
vt 0.000499 0.000500 0.999501
vt 0.500000 0.500000 0.999501
vt 0.999501 0.999500 0.999501
vt 0.000500 0.999501 0.999501
vt 0.000499 0.000499 0.000500
vt 0.500000 0.000499 0.500000
vt 0.500000 0.999501 0.500000
vt 0.000499 0.999501 0.000500
vt 0.999501 0.000499 0.999500
vt 0.999501 0.999501 0.999500
vt 0.000499 0.000499 0.999500
vt 0.999500 0.000499 0.999501
vt 0.999500 0.999501 0.999501
vt 0.000499 0.999501 0.999500
vt 0.999500 0.000499 0.000499
# 19 texture coords

g Box02
usemtl 02___Default
s 2
f 1/1/1 2/2/1 3/3/1 
f 3/3/1 4/4/2 1/1/1 
s 4
f 5/5/3 6/6/2 7/7/3 
f 7/7/3 8/8/3 5/5/3 
s 8
f 1/9/4 4/10/4 6/11/4 
f 6/11/4 5/12/4 1/9/4 
s 16
f 4/10/4 3/13/4 7/14/4 
f 7/14/4 6/11/4 4/10/4 
s 32
f 3/15/5 2/16/5 8/17/5 
f 8/17/5 7/18/5 3/15/5 
s 64
f 2/9/6 1/19/6 5/2/6 
f 5/2/6 8/12/6 2/9/6 
# 12 faces

