# 3ds Max Wavefront OBJ Exporter v0.97b - (c)2007 guruware
# File Created: 03.05.2011 22:43:02

mtllib StorageHouseDoorLeft.mtl

#
# object DoorLeft
#

v  -0.0044 0.0127 0.0951
v  -2.0044 0.0127 0.0951
v  -2.0044 0.0127 -0.1049
v  -0.0044 0.0127 -0.1049
v  -0.0044 2.5127 0.0951
v  -0.0044 2.5127 -0.1049
v  -2.0044 2.5127 -0.1049
v  -2.0044 2.5127 0.0951
v  -2.0024 0.0000 0.0977
v  -2.0024 0.0000 -0.1039
v  -0.0040 0.0000 -0.1039
v  -0.0040 0.0000 0.0977
v  -2.0024 2.5157 0.0977
v  -0.0040 2.5157 0.0977
v  -0.0040 2.5157 -0.1039
v  -2.0024 2.5157 -0.1039
# 16 vertices

vn 0.0000 -1.0000 -0.0000
vn 0.0000 1.0000 -0.0000
vn -0.0000 0.0000 1.0000
vn -1.0000 0.0000 0.0000
vn -0.0000 0.0000 -1.0000
vn 1.0000 0.0000 -0.0000
# 6 vertex normals

vt 0.8834 0.1157 0.0203
vt 0.0578 0.1157 0.0203
vt 0.0578 0.8843 0.0203
vt 0.8834 0.8843 0.0203
vt 0.1166 0.1157 0.9285
vt 0.1166 0.8843 0.9285
vt 0.9422 0.8843 0.9285
vt 0.9422 0.1157 0.9285
vt 0.1166 0.0203 0.1157
vt 0.1166 0.9285 0.1157
vt 0.9422 0.9285 0.1157
vt 0.9422 0.0203 0.1157
vt 0.1157 0.0203 0.9422
vt 0.1157 0.9285 0.9422
vt 0.8843 0.9285 0.9422
vt 0.8843 0.0203 0.9422
vt 0.0578 0.0203 0.8843
vt 0.0578 0.9285 0.8843
vt 0.8834 0.9285 0.8843
vt 0.8834 0.0203 0.8843
vt 0.1157 0.0203 0.1166
vt 0.1157 0.9285 0.1166
vt 0.8843 0.9285 0.1166
vt 0.8843 0.0203 0.1166
vt 1.0000 0.0000 0.0000
vt 1.0000 1.0000 0.0000
vt 0.0000 1.0000 0.0000
vt 0.0000 0.0000 0.0000
# 28 texture coords

g DoorLeft
usemtl DoorsBig
s 2
f 1/1/1 2/2/1 3/3/1 
f 3/3/1 4/4/1 1/1/1 
s 4
f 5/5/2 6/6/2 7/7/2 
f 7/7/2 8/8/2 5/5/2 
s 8
f 1/9/3 5/10/3 8/11/3 
f 8/11/3 2/12/3 1/9/3 
s 16
f 2/13/4 8/14/4 7/15/4 
f 7/15/4 3/16/4 2/13/4 
s 32
f 3/17/5 7/18/5 6/19/5 
f 6/19/5 4/20/5 3/17/5 
s 64
f 4/21/6 6/22/6 5/23/6 
f 5/23/6 1/24/6 4/21/6 
usemtl TW_Physics_Box
s 2
f 9/25/1 10/26/1 11/27/1 
f 11/27/1 12/28/1 9/25/1 
s 4
f 13/28/2 14/25/2 15/26/2 
f 15/26/2 16/27/2 13/28/2 
s 8
f 9/28/3 12/25/3 14/26/3 
f 14/26/3 13/27/3 9/28/3 
s 16
f 12/28/6 11/25/6 15/26/6 
f 15/26/6 14/27/6 12/28/6 
s 32
f 11/28/5 10/25/5 16/26/5 
f 16/26/5 15/27/5 11/28/5 
s 64
f 10/28/4 9/25/4 13/26/4 
f 13/26/4 16/27/4 10/28/4 
# 24 faces

