# 3ds Max Wavefront OBJ Exporter v0.97b - (c)2007 guruware
# File Created: 23.04.2011 16:25:50

mtllib StorageHouseDoorRight.mtl

#
# object DoorRight
#

v  -2.00046 0.00429 0.10047
v  -2.00073 0.00429 -0.09953
v  -0.00073 0.00429 -0.10218
v  -0.00047 0.00429 0.09782
v  -2.00046 2.50429 0.10047
v  -0.00047 2.50429 0.09782
v  -0.00073 2.50429 -0.10218
v  -2.00073 2.50429 -0.09953
# 8 vertices

vn 0.00000 -1.00000 -0.00000
vn 0.00000 1.00000 -0.00000
vn 0.16535 0.00000 0.98623
vn 0.98935 0.00000 0.14555
vn -0.16535 0.00000 -0.98623
vn -0.98935 0.00000 -0.14555
# 6 vertex normals

vt 0.88340 0.11568 0.02032
vt 0.88340 0.88432 0.02032
vt 0.05778 0.88432 0.02032
vt 0.05778 0.11568 0.02032
vt 0.11660 0.11568 0.92851
vt 0.94222 0.11568 0.92851
vt 0.94222 0.88432 0.92851
vt 0.11660 0.88432 0.92851
vt 0.11660 0.02032 0.11568
vt 0.94222 0.02032 0.11568
vt 0.94222 0.92851 0.11568
vt 0.11660 0.92851 0.11568
vt 0.11568 0.02032 0.94222
vt 0.88432 0.02032 0.94222
vt 0.88432 0.92851 0.94222
vt 0.11568 0.92851 0.94222
vt 0.05778 0.02032 0.88432
vt 0.88340 0.02032 0.88432
vt 0.88340 0.92851 0.88432
vt 0.05778 0.92851 0.88432
vt 0.11568 0.02032 0.11660
vt 0.88432 0.02032 0.11660
vt 0.88432 0.92851 0.11660
vt 0.11568 0.92851 0.11660
# 24 texture coords

g DoorRight
usemtl DoorsBig
s 2
f 1/1/1 2/2/1 3/3/1 
f 3/3/1 4/4/1 1/1/1 
s 4
f 5/5/2 6/6/2 7/7/2 
f 7/7/2 8/8/2 5/5/2 
s 8
f 1/9/3 4/10/3 6/11/3 
f 6/11/3 5/12/3 1/9/3 
s 16
f 4/13/4 3/14/4 7/15/4 
f 7/15/4 6/16/4 4/13/4 
s 32
f 3/17/5 2/18/5 8/19/5 
f 8/19/5 7/20/5 3/17/5 
s 64
f 2/21/6 1/22/6 5/23/6 
f 5/23/6 8/24/6 2/21/6 
# 12 faces

