# 3ds Max Wavefront OBJ Exporter v0.97b - (c)2007 guruware
# File Created: 05.11.2011 12:04:51

mtllib BasicPillar.mtl

#
# object Box01
#

v  0.100000 -0.250000 0.100000
v  -0.100000 -0.250000 0.100000
v  -0.100000 -0.250000 -0.100000
v  0.100000 -0.250000 -0.100000
v  0.100000 0.250000 0.100000
v  0.100000 0.250000 -0.100000
v  -0.100000 0.250000 -0.100000
v  -0.100000 0.250000 0.100000
# 8 vertices

vn 0.000000 -1.000000 -0.000000
vn 0.000000 1.000000 -0.000000
vn 1.000000 0.000000 -0.000000
vn -0.000000 0.000000 -1.000000
vn -1.000000 0.000000 0.000000
vn 0.000000 0.000000 1.000000
# 6 vertex normals

vt 0.600000 0.650000 0.500000
vt 0.600000 0.850000 0.500000
vt 0.400000 0.850000 0.500000
vt 0.400000 0.650000 0.500000
vt 0.400000 0.650000 1.000000
vt 0.600000 0.650000 1.000000
vt 0.600000 0.850000 1.000000
vt 0.400000 0.850000 1.000000
vt 0.400000 0.500000 0.650000
vt 0.600000 0.500000 0.650000
vt 0.600000 1.000000 0.650000
vt 0.400000 1.000000 0.650000
vt 0.650000 0.500000 0.600000
vt 0.850000 0.500000 0.600000
vt 0.850000 1.000000 0.600000
vt 0.650000 1.000000 0.600000
vt 0.400000 0.500000 0.850000
vt 0.600000 0.500000 0.850000
vt 0.600000 1.000000 0.850000
vt 0.400000 1.000000 0.850000
vt 0.150000 0.500000 0.400000
vt 0.350000 0.500000 0.400000
vt 0.350000 1.000000 0.400000
vt 0.150000 1.000000 0.400000
# 24 texture coords

g Box01
usemtl 01___Default
s 2
f 1/1/1 2/2/1 3/3/1 
f 3/3/1 4/4/1 1/1/1 
s 4
f 5/5/2 6/6/2 7/7/2 
f 7/7/2 8/8/2 5/5/2 
s 8
f 1/9/3 4/10/3 6/11/3 
f 6/11/3 5/12/3 1/9/3 
s 16
f 4/13/4 3/14/4 7/15/4 
f 7/15/4 6/16/4 4/13/4 
s 32
f 3/17/5 2/18/5 8/19/5 
f 8/19/5 7/20/5 3/17/5 
s 64
f 2/21/6 1/22/6 5/23/6 
f 5/23/6 8/24/6 2/21/6 
# 12 faces

