# 3ds Max Wavefront OBJ Exporter v0.97b - (c)2007 guruware
# File Created: 04.09.2011 10:17:29

mtllib BasicTestBlock.mtl

#
# object Box01
#

v  -0.500000 0.000000 0.500000
v  -0.500000 0.000000 -0.500000
v  0.500000 0.000000 -0.500000
v  0.500000 0.000000 0.500000
v  -0.500000 1.000000 0.500000
v  0.500000 1.000000 0.500000
v  0.500000 1.000000 -0.500000
v  -0.500000 1.000000 -0.500000
# 8 vertices

vn 0.000000 -1.000000 -0.000000
vn 0.000000 1.000000 -0.000000
vn 0.000000 0.000000 1.000000
vn 1.000000 0.000000 -0.000000
vn 0.000000 0.000000 -1.000000
vn -1.000000 0.000000 -0.000000
# 6 vertex normals

vt 0.999500 0.000500 0.000500
vt 0.999500 0.999500 0.000500
vt 0.000500 0.999500 0.000500
vt 0.000500 0.000500 0.000500
vt 0.000500 0.000500 0.999500
vt 0.999500 0.000500 0.999500
vt 0.999500 0.999500 0.999500
vt 0.000500 0.999500 0.999500
# 8 texture coords

g Box01
usemtl 01___Default
s 2
f 1/1/1 2/2/1 3/3/1 
f 3/3/1 4/4/1 1/1/1 
s 4
f 5/5/2 6/6/2 7/7/2 
f 7/7/2 8/8/2 5/5/2 
s 8
f 1/4/3 4/1/3 6/2/3 
f 6/2/3 5/3/3 1/4/3 
s 16
f 4/5/4 3/6/4 7/7/4 
f 7/7/4 6/8/4 4/5/4 
s 32
f 3/5/5 2/6/5 8/7/5 
f 8/7/5 7/8/5 3/5/5 
s 64
f 2/4/6 1/1/6 5/2/6 
f 5/2/6 8/3/6 2/4/6 
# 12 faces

