# 3ds Max Wavefront OBJ Exporter v0.97b - (c)2007 guruware
# File Created: 03.09.2011 22:17:27

mtllib BasicTestBlock.mtl

#
# object Box01
#

v  -0.500000 0.000000 0.500000
v  -0.500000 0.000000 -0.500000
v  0.500000 0.000000 -0.500000
v  0.500000 0.000000 0.500000
v  -0.500000 1.000000 0.500000
v  0.500000 1.000000 0.500000
v  0.500000 1.000000 -0.500000
v  -0.500000 1.000000 -0.500000
# 8 vertices

vn 0.000000 -1.000000 -0.000000
vn 0.000000 1.000000 -0.000000
vn 0.000000 0.000000 1.000000
vn 1.000000 0.000000 -0.000000
vn 0.000000 0.000000 -1.000000
vn -1.000000 0.000000 -0.000000
# 6 vertex normals

vt 0.609180 0.372217 0.620629
vt 0.609180 0.669836 0.620629
vt 0.311561 0.669836 0.620629
vt 0.311561 0.372217 0.620629
vt 0.390820 0.372217 0.918248
vt 0.688439 0.372217 0.918248
vt 0.688439 0.669836 0.918248
vt 0.390820 0.669836 0.918248
vt 0.390820 0.620629 0.372217
vt 0.688439 0.620629 0.372217
vt 0.688439 0.918248 0.372217
vt 0.390820 0.918248 0.372217
vt 0.372217 0.620629 0.688439
vt 0.669836 0.620629 0.688439
vt 0.669836 0.918248 0.688439
vt 0.372217 0.918248 0.688439
vt 0.311561 0.620629 0.669836
vt 0.609180 0.620629 0.669836
vt 0.609180 0.918248 0.669836
vt 0.311561 0.918248 0.669836
vt 0.330164 0.620629 0.390820
vt 0.627783 0.620629 0.390820
vt 0.627783 0.918248 0.390820
vt 0.330164 0.918248 0.390820
# 24 texture coords

g Box01
usemtl 01___Default
s 2
f 1/1/1 2/2/1 3/3/1 
f 3/3/1 4/4/1 1/1/1 
s 4
f 5/5/2 6/6/2 7/7/2 
f 7/7/2 8/8/2 5/5/2 
s 8
f 1/9/3 4/10/3 6/11/3 
f 6/11/3 5/12/3 1/9/3 
s 16
f 4/13/4 3/14/4 7/15/4 
f 7/15/4 6/16/4 4/13/4 
s 32
f 3/17/5 2/18/5 8/19/5 
f 8/19/5 7/20/5 3/17/5 
s 64
f 2/21/6 1/22/6 5/23/6 
f 5/23/6 8/24/6 2/21/6 
# 12 faces

