# 3ds Max Wavefront OBJ Exporter v0.97b - (c)2007 guruware
# File Created: 31.03.2012 13:32:57

mtllib ts001icg001.mtl

#
# object Object242
#

v  -1.265072 2.000000 -1.499758
v  -1.265072 2.000000 1.300687
v  -1.265072 1.700000 1.300687
v  -1.265072 1.700000 -1.499758
v  -1.300427 2.000000 -1.499747
v  -1.300427 2.000000 1.299820
v  -1.300427 1.700000 1.299820
v  -1.300427 1.700000 -1.499747
# 8 vertices

vn 1.000000 0.000000 -0.000000
vn 0.000000 1.000000 -0.000000
vn 0.000000 -1.000000 -0.000000
# 3 vertex normals

vt 0.900729 0.714286 0.974343
vt 0.025590 0.714286 0.974343
vt 0.025590 0.285715 0.974343
vt 0.900729 0.285715 0.974343
vt 0.963294 0.900726 0.714286
vt 0.963294 0.025861 0.714286
vt 0.974343 0.025590 0.714286
vt 0.974343 0.900729 0.714286
vt 0.036706 0.025861 0.285715
vt 0.036706 0.900726 0.285715
vt 0.025657 0.900729 0.285715
vt 0.025657 0.025590 0.285715
# 12 texture coords

g Object242
usemtl Metal001
s 16
f 1/1/1 2/2/1 3/3/1 
f 3/3/1 4/4/1 1/1/1 
s off
f 5/5/2 6/6/2 2/7/2 
f 2/7/2 1/8/2 5/5/2 
f 7/9/3 8/10/3 4/11/3 
f 4/11/3 3/12/3 7/9/3 
# 6 faces

#
# object Object243
#

v  -1.265072 -2.000000 -1.499504
v  -1.265072 -1.800000 -1.499504
v  -1.265072 -1.800000 1.299473
v  -1.265072 -2.000000 1.299473
v  -1.300427 -1.800000 -1.500248
v  -1.300427 -1.800000 1.299820
# 6 vertices

vn 1.000000 0.000000 -0.000000
vn -0.000000 1.000000 -0.000000
vn 0.000000 1.000000 -0.000000
# 3 vertex normals

vt 0.900515 0.357143 0.974274
vt 0.900515 0.642857 0.974274
vt 0.025834 0.642857 0.974274
vt 0.025834 0.357143 0.974274
vt 0.963226 0.900747 0.642857
vt 0.963225 0.025726 0.642857
vt 0.974274 0.025834 0.642857
vt 0.974274 0.900515 0.642857
# 8 texture coords

g Object243
usemtl Metal001
s 16
f 9/13/4 10/14/4 11/15/4 
f 11/15/4 12/16/4 9/13/4 
s off
f 13/17/5 14/18/5 11/19/5 
f 11/19/6 10/20/6 13/17/6 
# 4 faces

#
# object Box107
#

v  -1.300427 1.700000 1.299821
v  1.500000 1.700000 1.299820
v  1.500000 -1.800000 1.299820
v  -1.300427 -1.800000 1.299821
# 4 vertices

vn -0.000000 0.000000 -1.000000
# 1 vertex normals

vt 1.488503 1.666667 1.488361
vt -0.378448 1.666667 1.488361
vt -0.378448 -0.666667 1.488361
vt 1.488503 -0.666667 1.488361
# 4 texture coords

g Box107
usemtl Walls_Brick01
s 16
f 15/21/7 16/22/7 17/23/7 
f 17/23/7 18/24/7 15/21/7 
# 2 faces

#
# object Plane02
#

v  -1.500000 -2.000000 1.500248
v  -0.750000 -2.000000 1.500248
v  -0.750000 -2.000000 0.750248
v  -1.500000 -2.000000 0.750248
v  0.000000 -2.000000 1.500248
v  0.000000 -2.000000 0.750248
v  0.750000 -2.000000 1.500248
v  0.750000 -2.000000 0.750248
v  1.500000 -2.000000 1.500248
v  1.500000 -2.000000 0.750248
v  -0.750000 -2.000000 0.000248
v  -1.500000 -2.000000 0.000248
v  0.000000 -2.000000 0.000248
v  0.750000 -2.000000 0.000248
v  1.500000 -2.000000 0.000248
v  -0.750000 -2.000000 -0.749752
v  -1.500000 -2.000000 -0.749752
v  0.000000 -2.000000 -0.749752
v  0.750000 -2.000000 -0.749752
v  1.500000 -2.000000 -0.749752
v  -0.750000 -2.000000 -1.499752
v  -1.500000 -2.000000 -1.499752
v  0.000000 -2.000000 -1.499752
v  0.750000 -2.000000 -1.499752
v  1.500000 -2.000000 -1.499752
# 25 vertices

vn 0.000000 1.000000 -0.000000
# 1 vertex normals

vt 0.000999 0.001000 1.000000
vt 0.500499 0.000999 1.000000
vt 0.500499 0.500500 1.000000
vt 0.000999 0.500500 1.000000
vt 1.000000 0.000999 1.000000
vt 1.000000 0.500500 1.000000
vt 1.499500 0.000999 1.000000
vt 1.499500 0.500499 1.000000
vt 1.999001 0.000999 1.000000
vt 1.999001 0.500499 1.000000
vt 0.500500 1.000000 1.000000
vt 0.000999 1.000000 1.000000
vt 1.000000 1.000000 1.000000
vt 1.499500 1.000000 1.000000
vt 1.999001 1.000000 1.000000
vt 0.500500 1.499501 1.000000
vt 0.000999 1.499501 1.000000
vt 1.000000 1.499500 1.000000
vt 1.499501 1.499500 1.000000
vt 1.999001 1.499500 1.000000
vt 0.500500 1.999001 1.000000
vt 0.001000 1.999001 1.000000
vt 1.000000 1.999001 1.000000
vt 1.499501 1.999001 1.000000
vt 1.999001 1.999001 1.000000
# 25 texture coords

g Plane02
usemtl Tiles01
s 1
f 19/25/8 20/26/8 21/27/8 
f 21/27/8 22/28/8 19/25/8 
f 20/26/8 23/29/8 24/30/8 
f 24/30/8 21/27/8 20/26/8 
f 23/29/8 25/31/8 26/32/8 
f 26/32/8 24/30/8 23/29/8 
f 25/31/8 27/33/8 28/34/8 
f 28/34/8 26/32/8 25/31/8 
f 22/28/8 21/27/8 29/35/8 
f 29/35/8 30/36/8 22/28/8 
f 21/27/8 24/30/8 31/37/8 
f 31/37/8 29/35/8 21/27/8 
f 24/30/8 26/32/8 32/38/8 
f 32/38/8 31/37/8 24/30/8 
f 26/32/8 28/34/8 33/39/8 
f 33/39/8 32/38/8 26/32/8 
f 30/36/8 29/35/8 34/40/8 
f 34/40/8 35/41/8 30/36/8 
f 29/35/8 31/37/8 36/42/8 
f 36/42/8 34/40/8 29/35/8 
f 31/37/8 32/38/8 37/43/8 
f 37/43/8 36/42/8 31/37/8 
f 32/38/8 33/39/8 38/44/8 
f 38/44/8 37/43/8 32/38/8 
f 35/41/8 34/40/8 39/45/8 
f 39/45/8 40/46/8 35/41/8 
f 34/40/8 36/42/8 41/47/8 
f 41/47/8 39/45/8 34/40/8 
f 36/42/8 37/43/8 42/48/8 
f 42/48/8 41/47/8 36/42/8 
f 37/43/8 38/44/8 43/49/8 
f 43/49/8 42/48/8 37/43/8 
# 32 faces

#
# object Object239
#

v  -1.300439 2.000000 1.265248
v  1.500433 2.000000 1.265248
v  1.500433 1.700000 1.265248
v  -1.300439 1.700000 1.265248
v  -1.300427 2.000000 1.299821
v  1.499567 2.000000 1.299820
v  1.499567 1.700000 1.299820
v  -1.300427 1.700000 1.299821
# 8 vertices

vn 0.000000 0.000000 -1.000000
vn 0.000000 1.000000 -0.000000
vn 0.000000 -1.000000 -0.000000
# 3 vertex normals

vt 0.963364 0.714286 0.974098
vt 0.088092 0.714286 0.974098
vt 0.088092 0.285715 0.974098
vt 0.963364 0.285715 0.974098
vt 0.963294 0.963361 0.714286
vt 0.963294 0.088363 0.714286
vt 0.974098 0.088092 0.714286
vt 0.974098 0.963364 0.714286
vt 0.036706 0.088363 0.285715
vt 0.036706 0.963361 0.285715
vt 0.025902 0.963364 0.285715
vt 0.025902 0.088092 0.285715
# 12 texture coords

g Object239
usemtl Metal001
s 16
f 44/50/9 45/51/9 46/52/9 
f 46/52/9 47/53/9 44/50/9 
s off
f 48/54/10 49/55/10 45/56/10 
f 45/56/10 44/57/10 48/54/10 
f 50/58/11 51/59/11 47/60/11 
f 47/60/11 46/61/11 50/58/11 
# 6 faces

#
# object Object240
#

v  -1.299684 -2.000000 1.265248
v  -1.299684 -1.800000 1.265248
v  1.499884 -1.800000 1.265248
v  1.499884 -2.000000 1.265248
v  -1.300427 -1.800000 1.299821
v  1.500232 -1.800000 1.299820
# 6 vertices

vn 0.000000 0.000000 -1.000000
vn -0.000000 1.000000 0.000000
vn -0.000000 1.000000 -0.000000
# 3 vertex normals

vt 0.962993 0.357143 0.974030
vt 0.962993 0.642857 0.974030
vt 0.088128 0.642857 0.974029
vt 0.088128 0.357143 0.974029
vt 0.963226 0.963226 0.642857
vt 0.963225 0.088020 0.642857
vt 0.974029 0.088128 0.642857
vt 0.974030 0.962993 0.642857
# 8 texture coords

g Object240
usemtl Metal001
s 16
f 52/62/12 53/63/12 54/64/12 
f 54/64/12 55/65/12 52/62/12 
s off
f 56/66/13 57/67/13 54/68/13 
f 54/68/14 53/69/14 56/66/14 
# 4 faces

#
# object Box108
#

v  -1.299783 1.700000 -1.499752
v  -1.300427 1.700000 1.299820
v  -1.300427 -1.800000 1.299820
v  -1.299783 -1.800000 -1.499752
# 4 vertices

vn 1.000000 0.000000 0.000230
# 1 vertex normals

vt 1.354885 1.666667 1.488791
vt -0.511496 1.666667 1.488361
vt -0.511496 -0.666667 1.488361
vt 1.354885 -0.666667 1.488791
# 4 texture coords

g Box108
usemtl Walls_Brick01
s 16
f 58/70/15 59/71/15 60/72/15 
f 60/72/15 61/73/15 58/70/15 
# 2 faces

