# 3ds Max Wavefront OBJ Exporter v0.97b - (c)2007 guruware
# File Created: 04.04.2012 18:17:52

mtllib ts001icg001.mtl

#
# object Box108
#

v  -1.299783 1.700000 -1.499752
v  -1.300427 1.700000 1.299820
v  -1.300427 -1.800000 1.299820
v  -1.299783 -1.800000 -1.499752
v  -1.265072 2.000000 -1.499758
v  -1.265072 2.000000 1.300687
v  -1.265072 1.700000 1.300687
v  -1.265072 1.700000 -1.499758
v  -1.300427 2.000000 -1.499747
v  -1.300427 2.000000 1.299820
v  -1.300427 1.700000 -1.499747
v  -1.265072 -2.000000 -1.499504
v  -1.265072 -1.800000 -1.499504
v  -1.265072 -1.800000 1.299473
v  -1.265072 -2.000000 1.299473
v  -1.300427 -1.800000 -1.500248
v  -1.300427 1.700000 1.299821
v  1.500000 1.700000 1.299820
v  1.500000 -1.800000 1.299820
v  -1.300427 -1.800000 1.299821
v  -1.500000 -2.000000 1.500248
v  -0.750000 -2.000000 1.500248
v  -0.750000 -2.000000 0.750248
v  -1.500000 -2.000000 0.750248
v  0.000000 -2.000000 1.500248
v  0.000000 -2.000000 0.750248
v  0.750000 -2.000000 1.500248
v  0.750000 -2.000000 0.750248
v  1.500000 -2.000000 1.500248
v  1.500000 -2.000000 0.750248
v  -0.750000 -2.000000 0.000248
v  -1.500000 -2.000000 0.000248
v  0.000000 -2.000000 0.000248
v  0.750000 -2.000000 0.000248
v  1.500000 -2.000000 0.000248
v  -0.750000 -2.000000 -0.749752
v  -1.500000 -2.000000 -0.749752
v  0.000000 -2.000000 -0.749752
v  0.750000 -2.000000 -0.749752
v  1.500000 -2.000000 -0.749752
v  -0.750000 -2.000000 -1.499752
v  -1.500000 -2.000000 -1.499752
v  0.000000 -2.000000 -1.499752
v  0.750000 -2.000000 -1.499752
v  1.500000 -2.000000 -1.499752
v  -1.300439 2.000000 1.265248
v  1.500433 2.000000 1.265248
v  1.500433 1.700000 1.265248
v  -1.300439 1.700000 1.265248
v  -1.300427 2.000000 1.299821
v  1.499567 2.000000 1.299820
v  1.499567 1.700000 1.299820
v  -1.299684 -2.000000 1.265248
v  -1.299684 -1.800000 1.265248
v  1.499884 -1.800000 1.265248
v  1.499884 -2.000000 1.265248
v  1.500232 -1.800000 1.299820
# 57 vertices

vn 1.000000 0.000000 0.000230
vn 1.000000 0.000000 -0.000000
vn 0.000000 1.000000 -0.000000
vn 0.000000 -1.000000 -0.000000
vn -0.000000 1.000000 -0.000000
vn -0.000000 0.000000 -1.000000
vn 0.000000 0.000000 -1.000000
vn -0.000000 1.000000 0.000000
# 8 vertex normals

vt 1.354885 1.666667 1.488791
vt -0.511496 1.666667 1.488361
vt -0.511496 -0.666667 1.488361
vt 1.354885 -0.666667 1.488791
vt 1.354889 1.866667 1.511932
vt -0.512074 1.866667 1.511931
vt -0.512074 1.666667 1.511931
vt 1.354889 1.666667 1.511932
vt 1.488361 1.354882 1.866667
vt 1.488361 -0.511496 1.866667
vt 1.511931 -0.512074 1.866667
vt 1.511932 1.354889 1.866667
vt -0.488361 -0.511496 1.666667
vt -0.488361 1.354882 1.666667
vt -0.511932 1.354889 1.666667
vt -0.511931 -0.512074 1.666667
vt 1.354720 -0.800000 1.511932
vt 1.354720 -0.666667 1.511932
vt -0.511265 -0.666667 1.511931
vt -0.511265 -0.800000 1.511931
vt 1.488361 1.355216 -0.666667
vt 1.488361 -0.511496 -0.666667
vt 1.511931 -0.511265 -0.666667
vt 1.511932 1.354720 -0.666667
vt -0.488361 1.666667 -0.511497
vt -2.355313 1.666667 -0.511497
vt -2.355313 -0.666667 -0.511497
vt -0.488361 -0.666667 -0.511497
vt 1.355312 -0.645115 -0.800000
vt 1.855312 -0.645115 -0.800000
vt 1.855312 -0.145115 -0.800000
vt 1.355312 -0.145115 -0.800000
vt 2.355312 -0.645115 -0.800000
vt 2.355312 -0.145115 -0.800000
vt 2.855312 -0.645115 -0.800000
vt 2.855312 -0.145115 -0.800000
vt 3.355313 -0.645115 -0.800000
vt 3.355313 -0.145115 -0.800000
vt 1.855313 0.354885 -0.800000
vt 1.355313 0.354885 -0.800000
vt 2.355313 0.354885 -0.800000
vt 2.855313 0.354885 -0.800000
vt 3.355313 0.354885 -0.800000
vt 1.855313 0.854885 -0.800000
vt 1.355313 0.854885 -0.800000
vt 2.355313 0.854885 -0.800000
vt 2.855313 0.854885 -0.800000
vt 3.355313 0.854885 -0.800000
vt 1.855313 1.354885 -0.800000
vt 1.355313 1.354885 -0.800000
vt 2.355313 1.354885 -0.800000
vt 2.855313 1.354885 -0.800000
vt 3.355313 1.354885 -0.800000
vt -0.488353 1.866667 -0.488448
vt -2.355601 1.866667 -0.488448
vt -2.355601 1.666667 -0.488448
vt -0.488353 1.666667 -0.488448
vt 1.488361 -0.511497 1.866667
vt 3.355024 -0.511497 1.866667
vt 3.355601 -0.488448 1.866667
vt 1.488353 -0.488448 1.866667
vt -2.355024 -0.511497 1.666667
vt -0.488361 -0.511497 1.666667
vt -0.488353 -0.488448 1.666667
vt -2.355601 -0.488448 1.666667
vt -0.488856 -0.800000 -0.488448
vt -0.488856 -0.666667 -0.488448
vt -2.355235 -0.666667 -0.488448
vt -2.355235 -0.800000 -0.488448
vt 1.488361 -0.511497 -0.666667
vt 3.355467 -0.511497 -0.666667
vt 3.355235 -0.488448 -0.666667
vt 1.488856 -0.488448 -0.666667
# 73 texture coords

g Box108
usemtl Walls_Brick01
s 16
f 1/1/1 2/2/1 3/3/1 
f 3/3/1 4/4/1 1/1/1 
usemtl Metal001
f 5/5/2 6/6/2 7/7/2 
f 7/7/2 8/8/2 5/5/2 
s off
f 9/9/3 10/10/3 6/11/3 
f 6/11/3 5/12/3 9/9/3 
f 2/13/4 11/14/4 8/15/4 
f 8/15/4 7/16/4 2/13/4 
s 16
f 12/17/2 13/18/2 14/19/2 
f 14/19/2 15/20/2 12/17/2 
s off
f 16/21/5 3/22/5 14/23/5 
f 14/23/3 13/24/3 16/21/3 
usemtl Walls_Brick01
s 16
f 17/25/6 18/26/6 19/27/6 
f 19/27/6 20/28/6 17/25/6 
usemtl Tiles01
s 1
f 21/29/3 22/30/3 23/31/3 
f 23/31/3 24/32/3 21/29/3 
f 22/30/3 25/33/3 26/34/3 
f 26/34/3 23/31/3 22/30/3 
f 25/33/3 27/35/3 28/36/3 
f 28/36/3 26/34/3 25/33/3 
f 27/35/3 29/37/3 30/38/3 
f 30/38/3 28/36/3 27/35/3 
f 24/32/3 23/31/3 31/39/3 
f 31/39/3 32/40/3 24/32/3 
f 23/31/3 26/34/3 33/41/3 
f 33/41/3 31/39/3 23/31/3 
f 26/34/3 28/36/3 34/42/3 
f 34/42/3 33/41/3 26/34/3 
f 28/36/3 30/38/3 35/43/3 
f 35/43/3 34/42/3 28/36/3 
f 32/40/3 31/39/3 36/44/3 
f 36/44/3 37/45/3 32/40/3 
f 31/39/3 33/41/3 38/46/3 
f 38/46/3 36/44/3 31/39/3 
f 33/41/3 34/42/3 39/47/3 
f 39/47/3 38/46/3 33/41/3 
f 34/42/3 35/43/3 40/48/3 
f 40/48/3 39/47/3 34/42/3 
f 37/45/3 36/44/3 41/49/3 
f 41/49/3 42/50/3 37/45/3 
f 36/44/3 38/46/3 43/51/3 
f 43/51/3 41/49/3 36/44/3 
f 38/46/3 39/47/3 44/52/3 
f 44/52/3 43/51/3 38/46/3 
f 39/47/3 40/48/3 45/53/3 
f 45/53/3 44/52/3 39/47/3 
usemtl Metal001
s 16
f 46/54/7 47/55/7 48/56/7 
f 48/56/7 49/57/7 46/54/7 
s off
f 50/58/3 51/59/3 47/60/3 
f 47/60/3 46/61/3 50/58/3 
f 52/62/4 17/63/4 49/64/4 
f 49/64/4 48/65/4 52/62/4 
s 16
f 53/66/7 54/67/7 55/68/7 
f 55/68/7 56/69/7 53/66/7 
s off
f 20/70/8 57/71/8 55/72/8 
f 55/72/5 54/73/5 20/70/5 
# 56 faces

