# 3ds Max Wavefront OBJ Exporter v0.97b - (c)2007 guruware
# File Created: 31.03.2012 13:33:46

mtllib ts001ocg001.mtl

#
# object Object233
#

v  -1.265000 2.000000 1.265000
v  -1.265000 2.000000 1.500433
v  -1.265000 1.700000 1.500433
v  -1.265000 1.700000 1.265000
v  -1.500220 2.000000 1.265000
v  -1.500220 1.700000 1.265000
v  -1.300000 2.000000 1.300000
v  -1.300000 2.000000 1.499567
v  -1.499781 2.000000 1.300000
v  -1.300000 1.700000 1.499567
v  -1.300000 1.700000 1.300000
v  -1.499781 1.700000 1.300000
# 12 vertices

vn 1.000000 0.000000 -0.000000
vn 0.000000 0.000000 -1.000000
vn 0.000000 1.000000 -0.000000
vn 0.000000 -1.000000 -0.000000
# 4 vertex normals

vt 0.979687 0.714286 0.979687
vt 0.906114 0.714286 0.979687
vt 0.906114 0.285715 0.979687
vt 0.979687 0.285715 0.979687
vt 0.093819 0.714286 0.979687
vt 0.020313 0.714286 0.979687
vt 0.020313 0.285715 0.979687
vt 0.093819 0.285715 0.979687
vt 0.968750 0.968750 0.714286
vt 0.968750 0.906385 0.714286
vt 0.979687 0.906114 0.714286
vt 0.979687 0.979687 0.714286
vt 0.906318 0.968750 0.714286
vt 0.906181 0.979687 0.714286
vt 0.031250 0.906385 0.285715
vt 0.031250 0.968750 0.285715
vt 0.020313 0.979687 0.285715
vt 0.020313 0.906114 0.285715
vt 0.093682 0.968750 0.285715
vt 0.093819 0.979687 0.285715
# 20 texture coords

g Object233
usemtl Metal001
s 16
f 1/1/1 2/2/1 3/3/1 
f 3/3/1 4/4/1 1/1/1 
s 32
f 5/5/2 1/6/2 4/7/2 
f 4/7/2 6/8/2 5/5/2 
s off
f 7/9/3 8/10/3 2/11/3 
f 2/11/3 1/12/3 7/9/3 
f 9/13/3 7/9/3 1/12/3 
f 1/12/3 5/14/3 9/13/3 
f 10/15/4 11/16/4 4/17/4 
f 4/17/4 3/18/4 10/15/4 
f 11/16/4 12/19/4 6/20/4 
f 6/20/4 4/17/4 11/16/4 
# 12 faces

#
# object Plane03
#

v  -1.500000 -2.000000 1.500000
v  -0.750000 -2.000000 1.500000
v  -0.750000 -2.000000 0.750000
v  -1.500000 -2.000000 0.750000
v  0.000000 -2.000000 1.500000
v  0.000000 -2.000000 0.750000
v  0.750000 -2.000000 1.500000
v  0.750000 -2.000000 0.750000
v  1.500000 -2.000000 1.500000
v  1.500000 -2.000000 0.750000
v  -0.750000 -2.000000 -0.000000
v  -1.500000 -2.000000 -0.000000
v  0.000000 -2.000000 -0.000000
v  0.750000 -2.000000 -0.000000
v  1.500000 -2.000000 -0.000000
v  -0.750000 -2.000000 -0.750000
v  -1.500000 -2.000000 -0.750000
v  0.000000 -2.000000 -0.750000
v  0.750000 -2.000000 -0.750000
v  1.500000 -2.000000 -0.750000
v  -0.750000 -2.000000 -1.500000
v  -1.500000 -2.000000 -1.500000
v  0.000000 -2.000000 -1.500000
v  0.750000 -2.000000 -1.500000
v  1.500000 -2.000000 -1.500000
# 25 vertices

vn 0.000000 1.000000 -0.000000
# 1 vertex normals

vt 0.000999 0.001000 1.000000
vt 0.500499 0.000999 1.000000
vt 0.500499 0.500500 1.000000
vt 0.000999 0.500500 1.000000
vt 1.000000 0.000999 1.000000
vt 1.000000 0.500500 1.000000
vt 1.499500 0.000999 1.000000
vt 1.499500 0.500499 1.000000
vt 1.999001 0.000999 1.000000
vt 1.999001 0.500499 1.000000
vt 0.500500 1.000000 1.000000
vt 0.000999 1.000000 1.000000
vt 1.000000 1.000000 1.000000
vt 1.499500 1.000000 1.000000
vt 1.999001 1.000000 1.000000
vt 0.500500 1.499501 1.000000
vt 0.000999 1.499501 1.000000
vt 1.000000 1.499500 1.000000
vt 1.499501 1.499500 1.000000
vt 1.999001 1.499500 1.000000
vt 0.500500 1.999001 1.000000
vt 0.001000 1.999001 1.000000
vt 1.000000 1.999001 1.000000
vt 1.499501 1.999001 1.000000
vt 1.999001 1.999001 1.000000
# 25 texture coords

g Plane03
usemtl Tiles01
s 1
f 13/21/5 14/22/5 15/23/5 
f 15/23/5 16/24/5 13/21/5 
f 14/22/5 17/25/5 18/26/5 
f 18/26/5 15/23/5 14/22/5 
f 17/25/5 19/27/5 20/28/5 
f 20/28/5 18/26/5 17/25/5 
f 19/27/5 21/29/5 22/30/5 
f 22/30/5 20/28/5 19/27/5 
f 16/24/5 15/23/5 23/31/5 
f 23/31/5 24/32/5 16/24/5 
f 15/23/5 18/26/5 25/33/5 
f 25/33/5 23/31/5 15/23/5 
f 18/26/5 20/28/5 26/34/5 
f 26/34/5 25/33/5 18/26/5 
f 20/28/5 22/30/5 27/35/5 
f 27/35/5 26/34/5 20/28/5 
f 24/32/5 23/31/5 28/36/5 
f 28/36/5 29/37/5 24/32/5 
f 23/31/5 25/33/5 30/38/5 
f 30/38/5 28/36/5 23/31/5 
f 25/33/5 26/34/5 31/39/5 
f 31/39/5 30/38/5 25/33/5 
f 26/34/5 27/35/5 32/40/5 
f 32/40/5 31/39/5 26/34/5 
f 29/37/5 28/36/5 33/41/5 
f 33/41/5 34/42/5 29/37/5 
f 28/36/5 30/38/5 35/43/5 
f 35/43/5 33/41/5 28/36/5 
f 30/38/5 31/39/5 36/44/5 
f 36/44/5 35/43/5 30/38/5 
f 31/39/5 32/40/5 37/45/5 
f 37/45/5 36/44/5 31/39/5 
# 32 faces

#
# object Object234
#

v  -1.282000 -2.000000 1.281889
v  -1.265000 -1.800000 1.265000
v  -1.265000 -1.800000 1.499884
v  -1.265000 -2.000000 1.499884
v  -1.499730 -2.000000 1.265000
v  -1.499730 -1.800000 1.265000
v  -1.500000 -1.800000 1.300000
v  -1.300000 -1.800000 1.300000
v  -1.300000 -1.800000 1.500232
# 9 vertices

vn 0.998294 -0.046775 -0.034935
vn 0.996407 -0.084693 0.000000
vn 0.998352 -0.040105 -0.041059
vn 0.996973 0.000000 -0.077746
vn 0.034756 -0.040791 -0.998563
vn 0.000000 0.000000 -1.000000
vn 0.040602 -0.047653 -0.998038
vn 0.077019 -0.090392 -0.992924
vn 0.000000 1.000000 -0.000000
vn -0.000000 1.000000 -0.000000
# 10 vertex normals

vt 0.974274 0.357143 0.974306
vt 0.979552 0.642857 0.979619
vt 0.906151 0.642857 0.979619
vt 0.906151 0.357143 0.979619
vt 0.093734 0.357143 0.979552
vt 0.093734 0.642857 0.979552
vt 0.020381 0.642857 0.979552
vt 0.025694 0.357143 0.974274
vt 0.906181 0.968614 0.642857
vt 0.968681 0.968614 0.642857
vt 0.979619 0.979552 0.642857
vt 0.906266 0.979552 0.642857
vt 0.968681 0.906042 0.642857
vt 0.979619 0.906151 0.642857
# 14 texture coords

g Object234
usemtl Metal001
s 16
f 38/46/6 39/47/7 40/48/8 
f 40/48/8 41/49/9 38/46/6 
s 32
f 42/50/10 43/51/11 39/52/12 
f 39/52/12 38/53/13 42/50/10 
s off
f 44/54/14 45/55/14 39/56/14 
f 39/56/14 43/57/14 44/54/14 
f 45/55/15 46/58/15 40/59/15 
f 40/59/15 39/56/15 45/55/15 
# 8 faces

#
# object Box105
#

v  -1.300000 1.700000 1.300000
v  -1.300000 1.700000 1.500000
v  -1.300000 -1.800000 1.500000
v  -1.300000 -1.800000 1.300000
v  -1.500000 1.700000 1.300000
v  -1.500000 -1.800000 1.300000
# 6 vertices

vn 1.000000 0.000000 -0.000000
vn 0.000000 0.000000 -1.000000
# 2 vertex normals

vt 1.500000 1.666667 1.500000
vt 1.366666 1.666667 1.500000
vt 1.366666 -0.666667 1.500000
vt 1.500000 -0.666667 1.500000
vt -0.366667 1.666667 1.500000
vt -0.500000 1.666667 1.500000
vt -0.500000 -0.666667 1.500000
vt -0.366667 -0.666667 1.500000
# 8 texture coords

g Box105
usemtl Walls_Brick01
s 16
f 47/60/16 48/61/16 49/62/16 
f 49/62/16 50/63/16 47/60/16 
s 32
f 51/64/17 47/65/17 50/66/17 
f 50/66/17 52/67/17 51/64/17 
# 4 faces

