# 3ds Max Wavefront OBJ Exporter v0.97b - (c)2007 guruware
# File Created: 04.04.2012 18:15:55

mtllib ts001sg001.mtl

#
# object Box106
#

v  -1.300000 1.700000 -1.500428
v  -1.300000 1.700000 1.499572
v  -1.300000 -1.800000 1.499572
v  -1.300000 -1.800000 -1.500428
v  -1.265000 2.000000 -1.500439
v  -1.265000 2.000000 1.500439
v  -1.265000 1.700000 1.500439
v  -1.265000 1.700000 -1.500439
v  -1.300000 2.000000 -1.500428
v  -1.300000 2.000000 1.499572
v  -1.500000 -2.000000 1.500000
v  -0.750000 -2.000000 1.500000
v  -0.750000 -2.000000 0.750000
v  -1.500000 -2.000000 0.750000
v  0.000000 -2.000000 1.500000
v  0.000000 -2.000000 0.750000
v  0.750000 -2.000000 1.500000
v  0.750000 -2.000000 0.750000
v  1.500000 -2.000000 1.500000
v  1.500000 -2.000000 0.750000
v  -0.750000 -2.000000 -0.000000
v  -1.500000 -2.000000 -0.000000
v  0.000000 -2.000000 -0.000000
v  0.750000 -2.000000 -0.000000
v  1.500000 -2.000000 -0.000000
v  -0.750000 -2.000000 -0.750000
v  -1.500000 -2.000000 -0.750000
v  0.000000 -2.000000 -0.750000
v  0.750000 -2.000000 -0.750000
v  1.500000 -2.000000 -0.750000
v  -0.750000 -2.000000 -1.500000
v  -1.500000 -2.000000 -1.500000
v  0.000000 -2.000000 -1.500000
v  0.750000 -2.000000 -1.500000
v  1.500000 -2.000000 -1.500000
v  -1.265000 -2.000000 -1.499684
v  -1.265000 -1.800000 -1.499684
v  -1.265000 -1.800000 1.500000
v  -1.265000 -2.000000 1.500000
# 39 vertices

vn 1.000000 0.000000 -0.000000
vn 0.000000 1.000000 -0.000000
vn 0.000000 -1.000000 -0.000000
vn -0.000000 1.000000 -0.000000
# 4 vertex normals

vt 1.488503 1.666667 1.500146
vt -0.511496 1.666667 1.500146
vt -0.511496 -0.666667 1.500146
vt 1.488503 -0.666667 1.500146
vt 0.963364 0.714286 0.979756
vt 0.025590 0.714286 0.979756
vt 0.025590 0.285715 0.979756
vt 0.963364 0.285715 0.979756
vt 0.968818 0.963361 0.714286
vt 0.968818 0.025861 0.714286
vt 0.979756 0.025590 0.714286
vt 0.979756 0.963364 0.714286
vt 0.031182 0.025861 0.285715
vt 0.031182 0.963361 0.285715
vt 0.020244 0.963364 0.285715
vt 0.020244 0.025590 0.285715
vt 0.000999 0.001000 1.000000
vt 0.500499 0.000999 1.000000
vt 0.500499 0.500500 1.000000
vt 0.000999 0.500500 1.000000
vt 1.000000 0.000999 1.000000
vt 1.000000 0.500500 1.000000
vt 1.499500 0.000999 1.000000
vt 1.499500 0.500499 1.000000
vt 1.999001 0.000999 1.000000
vt 1.999001 0.500499 1.000000
vt 0.500500 1.000000 1.000000
vt 0.000999 1.000000 1.000000
vt 1.000000 1.000000 1.000000
vt 1.499500 1.000000 1.000000
vt 1.999001 1.000000 1.000000
vt 0.500500 1.499501 1.000000
vt 0.000999 1.499501 1.000000
vt 1.000000 1.499500 1.000000
vt 1.499501 1.499500 1.000000
vt 1.999001 1.499500 1.000000
vt 0.500500 1.999001 1.000000
vt 0.001000 1.999001 1.000000
vt 1.000000 1.999001 1.000000
vt 1.499501 1.999001 1.000000
vt 1.999001 1.999001 1.000000
vt 0.962993 0.357143 0.979687
vt 0.962993 0.642857 0.979687
vt 0.025592 0.642857 0.979687
vt 0.025592 0.357143 0.979687
vt 0.968750 0.963226 0.642857
vt 0.968750 0.025726 0.642857
vt 0.979687 0.025592 0.642857
vt 0.979687 0.962993 0.642857
# 49 texture coords

g Box106
usemtl Walls_Brick01
s 16
f 1/1/1 2/2/1 3/3/1 
f 3/3/1 4/4/1 1/1/1 
usemtl Metal001
f 5/5/1 6/6/1 7/7/1 
f 7/7/1 8/8/1 5/5/1 
s off
f 9/9/2 10/10/2 6/11/2 
f 6/11/2 5/12/2 9/9/2 
f 2/13/3 1/14/3 8/15/3 
f 8/15/3 7/16/3 2/13/3 
usemtl Tiles01
s 1
f 11/17/2 12/18/2 13/19/2 
f 13/19/2 14/20/2 11/17/2 
f 12/18/2 15/21/2 16/22/2 
f 16/22/2 13/19/2 12/18/2 
f 15/21/2 17/23/2 18/24/2 
f 18/24/2 16/22/2 15/21/2 
f 17/23/2 19/25/2 20/26/2 
f 20/26/2 18/24/2 17/23/2 
f 14/20/2 13/19/2 21/27/2 
f 21/27/2 22/28/2 14/20/2 
f 13/19/2 16/22/2 23/29/2 
f 23/29/2 21/27/2 13/19/2 
f 16/22/2 18/24/2 24/30/2 
f 24/30/2 23/29/2 16/22/2 
f 18/24/2 20/26/2 25/31/2 
f 25/31/2 24/30/2 18/24/2 
f 22/28/2 21/27/2 26/32/2 
f 26/32/2 27/33/2 22/28/2 
f 21/27/2 23/29/2 28/34/2 
f 28/34/2 26/32/2 21/27/2 
f 23/29/2 24/30/2 29/35/2 
f 29/35/2 28/34/2 23/29/2 
f 24/30/2 25/31/2 30/36/2 
f 30/36/2 29/35/2 24/30/2 
f 27/33/2 26/32/2 31/37/2 
f 31/37/2 32/38/2 27/33/2 
f 26/32/2 28/34/2 33/39/2 
f 33/39/2 31/37/2 26/32/2 
f 28/34/2 29/35/2 34/40/2 
f 34/40/2 33/39/2 28/34/2 
f 29/35/2 30/36/2 35/41/2 
f 35/41/2 34/40/2 29/35/2 
usemtl Metal001
s 16
f 36/42/1 37/43/1 38/44/1 
f 38/44/1 39/45/1 36/42/1 
s off
f 4/46/4 3/47/4 38/48/4 
f 38/48/2 37/49/2 4/46/2 
# 44 faces

