# 3ds Max Wavefront OBJ Exporter v0.97b - (c)2007 guruware
# File Created: 04.04.2012 18:17:09

mtllib ts001ocg001.mtl

#
# object Box105
#

v  -1.300000 1.700000 1.300000
v  -1.300000 1.700000 1.500000
v  -1.300000 -1.800000 1.500000
v  -1.300000 -1.800000 1.300000
v  -1.500000 1.700000 1.300000
v  -1.500000 -1.800000 1.300000
v  -1.265000 2.000000 1.265000
v  -1.265000 2.000000 1.500433
v  -1.265000 1.700000 1.500433
v  -1.265000 1.700000 1.265000
v  -1.500220 2.000000 1.265000
v  -1.500220 1.700000 1.265000
v  -1.300000 2.000000 1.300000
v  -1.300000 2.000000 1.499567
v  -1.499781 2.000000 1.300000
v  -1.300000 1.700000 1.499567
v  -1.499781 1.700000 1.300000
v  -1.500000 -2.000000 1.500000
v  -0.750000 -2.000000 1.500000
v  -0.750000 -2.000000 0.750000
v  -1.500000 -2.000000 0.750000
v  0.000000 -2.000000 1.500000
v  0.000000 -2.000000 0.750000
v  0.750000 -2.000000 1.500000
v  0.750000 -2.000000 0.750000
v  1.500000 -2.000000 1.500000
v  1.500000 -2.000000 0.750000
v  -0.750000 -2.000000 -0.000000
v  -1.500000 -2.000000 -0.000000
v  0.000000 -2.000000 -0.000000
v  0.750000 -2.000000 -0.000000
v  1.500000 -2.000000 -0.000000
v  -0.750000 -2.000000 -0.750000
v  -1.500000 -2.000000 -0.750000
v  0.000000 -2.000000 -0.750000
v  0.750000 -2.000000 -0.750000
v  1.500000 -2.000000 -0.750000
v  -0.750000 -2.000000 -1.500000
v  -1.500000 -2.000000 -1.500000
v  0.000000 -2.000000 -1.500000
v  0.750000 -2.000000 -1.500000
v  1.500000 -2.000000 -1.500000
v  -1.282000 -2.000000 1.281889
v  -1.265000 -1.800000 1.265000
v  -1.265000 -1.800000 1.499884
v  -1.265000 -2.000000 1.499884
v  -1.499730 -2.000000 1.265000
v  -1.499730 -1.800000 1.265000
v  -1.300000 -1.800000 1.500232
# 49 vertices

vn 1.000000 0.000000 -0.000000
vn 0.000000 0.000000 -1.000000
vn 0.000000 1.000000 -0.000000
vn 0.000000 -1.000000 -0.000000
vn 0.998294 -0.046775 -0.034935
vn 0.996407 -0.084693 0.000000
vn 0.998352 -0.040105 -0.041059
vn 0.996973 0.000000 -0.077746
vn 0.034756 -0.040791 -0.998563
vn 0.040602 -0.047653 -0.998038
vn 0.077019 -0.090392 -0.992924
vn -0.000000 1.000000 -0.000000
# 12 vertex normals

vt 1.500000 1.666667 1.500000
vt 1.366666 1.666667 1.500000
vt 1.366666 -0.666667 1.500000
vt 1.500000 -0.666667 1.500000
vt -0.366667 1.666667 1.500000
vt -0.500000 1.666667 1.500000
vt -0.500000 -0.666667 1.500000
vt -0.366667 -0.666667 1.500000
vt 1.523333 1.866667 1.523333
vt 1.366377 1.866667 1.523333
vt 1.366377 1.666667 1.523333
vt 1.523333 1.666667 1.523333
vt -0.366520 1.866667 1.523333
vt -0.523333 1.866667 1.523333
vt -0.523333 1.666667 1.523333
vt -0.366520 1.666667 1.523333
vt 1.500000 1.500000 1.866667
vt 1.500000 1.366955 1.866667
vt 1.523333 1.366377 1.866667
vt 1.523333 1.523333 1.866667
vt 1.366813 1.500000 1.866667
vt 1.366520 1.523333 1.866667
vt -0.500000 1.366955 1.666667
vt -0.500000 1.500000 1.666667
vt -0.523333 1.523333 1.666667
vt -0.523333 1.366377 1.666667
vt -0.366813 1.500000 1.666667
vt -0.366520 1.523333 1.666667
vt 1.366667 1.366667 -0.800000
vt 1.866667 1.366666 -0.800000
vt 1.866667 1.866667 -0.800000
vt 1.366667 1.866667 -0.800000
vt 2.366667 1.366666 -0.800000
vt 2.366667 1.866666 -0.800000
vt 2.866667 1.366666 -0.800000
vt 2.866667 1.866666 -0.800000
vt 3.366667 1.366666 -0.800000
vt 3.366667 1.866666 -0.800000
vt 1.866667 2.366667 -0.800000
vt 1.366667 2.366667 -0.800000
vt 2.366667 2.366666 -0.800000
vt 2.866667 2.366666 -0.800000
vt 3.366667 2.366666 -0.800000
vt 1.866667 2.866667 -0.800000
vt 1.366667 2.866667 -0.800000
vt 2.366667 2.866666 -0.800000
vt 2.866667 2.866666 -0.800000
vt 3.366667 2.866666 -0.800000
vt 1.866667 3.366667 -0.800000
vt 1.366667 3.366667 -0.800000
vt 2.366667 3.366666 -0.800000
vt 2.866667 3.366666 -0.800000
vt 3.366667 3.366666 -0.800000
vt 1.512074 -0.800000 1.512000
vt 1.523333 -0.666667 1.523333
vt 1.366744 -0.666667 1.523333
vt 1.366744 -0.800000 1.523333
vt -0.366847 -0.800000 1.523333
vt -0.366847 -0.666667 1.523333
vt -0.523333 -0.666667 1.523333
vt -0.512000 -0.800000 1.512074
vt 1.366667 1.500000 -0.666667
vt 1.500000 1.500000 -0.666667
vt 1.523333 1.523333 -0.666667
vt 1.366847 1.523333 -0.666667
vt 1.500000 1.366512 -0.666667
vt 1.523333 1.366744 -0.666667
# 67 texture coords

g Box105
usemtl Walls_Brick01
s 16
f 1/1/1 2/2/1 3/3/1 
f 3/3/1 4/4/1 1/1/1 
s 32
f 5/5/2 1/6/2 4/7/2 
f 4/7/2 6/8/2 5/5/2 
usemtl Metal001
s 16
f 7/9/1 8/10/1 9/11/1 
f 9/11/1 10/12/1 7/9/1 
s 32
f 11/13/2 7/14/2 10/15/2 
f 10/15/2 12/16/2 11/13/2 
s off
f 13/17/3 14/18/3 8/19/3 
f 8/19/3 7/20/3 13/17/3 
f 15/21/3 13/17/3 7/20/3 
f 7/20/3 11/22/3 15/21/3 
f 16/23/4 1/24/4 10/25/4 
f 10/25/4 9/26/4 16/23/4 
f 1/24/4 17/27/4 12/28/4 
f 12/28/4 10/25/4 1/24/4 
usemtl Tiles01
s 1
f 18/29/3 19/30/3 20/31/3 
f 20/31/3 21/32/3 18/29/3 
f 19/30/3 22/33/3 23/34/3 
f 23/34/3 20/31/3 19/30/3 
f 22/33/3 24/35/3 25/36/3 
f 25/36/3 23/34/3 22/33/3 
f 24/35/3 26/37/3 27/38/3 
f 27/38/3 25/36/3 24/35/3 
f 21/32/3 20/31/3 28/39/3 
f 28/39/3 29/40/3 21/32/3 
f 20/31/3 23/34/3 30/41/3 
f 30/41/3 28/39/3 20/31/3 
f 23/34/3 25/36/3 31/42/3 
f 31/42/3 30/41/3 23/34/3 
f 25/36/3 27/38/3 32/43/3 
f 32/43/3 31/42/3 25/36/3 
f 29/40/3 28/39/3 33/44/3 
f 33/44/3 34/45/3 29/40/3 
f 28/39/3 30/41/3 35/46/3 
f 35/46/3 33/44/3 28/39/3 
f 30/41/3 31/42/3 36/47/3 
f 36/47/3 35/46/3 30/41/3 
f 31/42/3 32/43/3 37/48/3 
f 37/48/3 36/47/3 31/42/3 
f 34/45/3 33/44/3 38/49/3 
f 38/49/3 39/50/3 34/45/3 
f 33/44/3 35/46/3 40/51/3 
f 40/51/3 38/49/3 33/44/3 
f 35/46/3 36/47/3 41/52/3 
f 41/52/3 40/51/3 35/46/3 
f 36/47/3 37/48/3 42/53/3 
f 42/53/3 41/52/3 36/47/3 
usemtl Metal001
s 16
f 43/54/5 44/55/6 45/56/7 
f 45/56/7 46/57/8 43/54/5 
s 32
f 47/58/9 48/59/2 44/60/10 
f 44/60/10 43/61/11 47/58/9 
s off
f 6/62/3 4/63/3 44/64/3 
f 44/64/3 48/65/3 6/62/3 
f 4/63/12 49/66/12 45/67/12 
f 45/67/12 44/64/12 4/63/12 
# 56 faces

