# 3ds Max Wavefront OBJ Exporter v0.97b - (c)2007 guruware
# File Created: 02.05.2011 20:19:00

mtllib WallOuterCorner.mtl

#
# object Cylinder18
#

#
# object Cylinder20
#

v  -1.203498 0.744957 1.500000
v  -1.243221 0.744957 1.351749
v  -1.243221 1.489914 1.351749
v  -1.203498 1.489914 1.500000
v  -1.351749 0.744957 1.243221
v  -1.351749 1.489914 1.243221
v  -1.500000 0.744957 1.203498
v  -1.500000 1.489914 1.203498
v  -1.243221 1.900000 1.351749
v  -1.203498 1.900000 1.500000
v  -1.351749 1.900000 1.243221
v  -1.500000 1.900000 1.203498
v  -1.203498 2.234870 1.500000
v  -1.243221 2.234870 1.351749
v  -1.243221 2.979827 1.351749
v  -1.203498 2.979827 1.500000
v  -1.351749 2.234870 1.243221
v  -1.351749 2.979827 1.243221
v  -1.500000 2.234870 1.203498
v  -1.500000 2.979827 1.203498
v  -1.243221 3.800000 1.351749
v  -1.203498 3.800000 1.500000
v  -1.351749 3.800000 1.243221
v  -1.500000 3.800000 1.203498
v  -1.203498 0.200000 1.500000
v  -1.243221 0.200000 1.351749
v  -1.351749 0.200000 1.243221
v  -1.500000 0.200000 1.203498
v  -1.203498 2.100000 1.500000
v  -1.243221 2.100000 1.351749
v  -1.351749 2.100000 1.243221
v  -1.500000 2.100000 1.203498
# 32 vertices

vn 0.965926 -0.000000 -0.258819
vn 0.866025 -0.000000 -0.500000
vn 0.500000 -0.000000 -0.866025
vn 0.500000 0.000000 -0.866025
vn 0.258819 -0.000000 -0.965926
vn 0.258819 0.000000 -0.965926
vn 0.866025 0.000000 -0.500000
vn 0.965926 0.000000 -0.258819
# 8 vertex normals

vt 1.500000 0.455176 0.999001
vt 1.666667 0.455176 0.999001
vt 1.666667 1.075353 0.999001
vt 1.500000 1.075353 0.999001
vt 1.833333 0.455176 0.999001
vt 1.833333 1.075353 0.999001
vt 2.000000 0.455176 0.999001
vt 2.000000 1.075353 0.999001
vt 1.666667 1.416750 0.999001
vt 1.500000 1.416750 0.999001
vt 1.833333 1.416750 0.999001
vt 2.000000 1.416750 0.999001
vt 1.500000 1.695530 0.999001
vt 1.666667 1.695530 0.999001
vt 1.666667 2.315707 0.999001
vt 1.500000 2.315707 0.999001
vt 1.833333 1.695530 0.999001
vt 1.833333 2.315707 0.999001
vt 2.000000 1.695530 0.999001
vt 2.000000 2.315707 0.999001
vt 1.666667 2.998502 0.999001
vt 1.500000 2.998502 0.999001
vt 1.833333 2.998502 0.999001
vt 2.000000 2.998502 0.999001
vt 1.500000 0.001499 0.999001
vt 1.666667 0.001499 0.999001
vt 1.833333 0.001499 0.999001
vt 2.000000 0.001499 0.999001
vt 1.500000 1.583250 0.999001
vt 1.666667 1.583250 0.999001
vt 1.833333 1.583250 0.999001
vt 2.000000 1.583250 0.999001
# 32 texture coords

g Cylinder20
usemtl Tiles01
s 8
f 1/1/1 2/2/2 3/3/2 
f 3/3/2 4/4/1 1/1/1 
f 2/2/2 5/5/3 6/6/4 
f 6/6/4 3/3/2 2/2/2 
f 5/5/3 7/7/5 8/8/6 
f 8/8/6 6/6/4 5/5/3 
f 3/3/2 9/9/7 10/10/8 
f 10/10/8 4/4/1 3/3/2 
f 6/6/4 11/11/4 9/9/7 
f 9/9/7 3/3/2 6/6/4 
f 8/8/6 12/12/5 11/11/4 
f 11/11/4 6/6/4 8/8/6 
f 13/13/8 14/14/7 15/15/7 
f 15/15/7 16/16/8 13/13/8 
f 14/14/7 17/17/4 18/18/4 
f 18/18/4 15/15/7 14/14/7 
f 17/17/4 19/19/6 20/20/6 
f 20/20/6 18/18/4 17/17/4 
f 15/15/7 21/21/7 22/22/8 
f 22/22/8 16/16/8 15/15/7 
f 18/18/4 23/23/4 21/21/7 
f 21/21/7 15/15/7 18/18/4 
f 20/20/6 24/24/6 23/23/4 
f 23/23/4 18/18/4 20/20/6 
f 2/2/2 1/1/1 25/25/8 
f 25/25/8 26/26/7 2/2/2 
f 5/5/3 2/2/2 26/26/7 
f 26/26/7 27/27/4 5/5/3 
f 7/7/5 5/5/3 27/27/4 
f 27/27/4 28/28/6 7/7/5 
f 14/14/7 13/13/8 29/29/8 
f 29/29/8 30/30/7 14/14/7 
f 17/17/4 14/14/7 30/30/7 
f 30/30/7 31/31/4 17/17/4 
f 19/19/6 17/17/4 31/31/4 
f 31/31/4 32/32/6 19/19/6 
# 36 faces

#
# object Object30
#

v  -1.199920 0.000000 1.326749
v  -1.199920 0.200000 1.326749
v  -1.153498 0.200000 1.500000
v  -1.153498 0.000000 1.500000
v  -1.326749 0.000000 1.199920
v  -1.326749 0.200000 1.199920
v  -1.500000 0.000000 1.153498
v  -1.500000 0.200000 1.153498
v  -1.243221 0.000000 1.351749
v  -1.203498 0.000000 1.500000
v  -1.351749 0.000000 1.500000
v  -1.371611 0.000000 1.425874
v  -1.351749 0.000000 1.243221
v  -1.425874 0.000000 1.371611
v  -1.500000 0.000000 1.203498
v  -1.500000 0.000000 1.351749
v  -1.500000 0.000000 1.500000
v  -1.203498 3.999999 1.500000
v  -1.243221 3.999999 1.351749
v  -1.371611 3.999999 1.425874
v  -1.351749 3.999999 1.500000
v  -1.351749 3.999999 1.243221
v  -1.425874 3.999999 1.371611
v  -1.500000 3.999999 1.203498
v  -1.500000 3.999999 1.351749
v  -1.500000 4.000000 1.500000
v  -1.243221 0.200000 1.351749
v  -1.203498 0.200000 1.500000
v  -1.500000 0.200000 1.203498
v  -1.351749 0.200000 1.243221
v  -1.199920 2.100000 1.326749
v  -1.153498 2.100000 1.500000
v  -1.153497 1.900000 1.500000
v  -1.199920 1.900000 1.326749
v  -1.326749 2.100000 1.199920
v  -1.326749 1.900000 1.199920
v  -1.500000 2.100000 1.153498
v  -1.500000 1.900000 1.153497
v  -1.243221 2.100000 1.351749
v  -1.203498 2.100000 1.500000
v  -1.500000 2.100000 1.203498
v  -1.351749 2.100000 1.243221
v  -1.203498 1.900000 1.500000
v  -1.243221 1.900000 1.351749
v  -1.351749 1.900000 1.243221
v  -1.500000 1.900000 1.203498
v  -1.070016 3.999999 1.251749
v  -1.003497 3.999999 1.500000
v  -1.003497 3.950000 1.500000
v  -1.070016 3.950000 1.251749
v  -1.251749 3.999999 1.070016
v  -1.251749 3.950000 1.070016
v  -1.500000 3.999999 1.003497
v  -1.500000 3.950000 1.003497
v  -1.113317 3.950000 1.276749
v  -1.053498 3.950000 1.500000
v  -1.053498 3.900000 1.500000
v  -1.113317 3.900000 1.276749
v  -1.276749 3.950000 1.113317
v  -1.276749 3.900000 1.113317
v  -1.500000 3.950000 1.053498
v  -1.500000 3.900000 1.053498
v  -1.156619 3.900000 1.301749
v  -1.103498 3.900000 1.500000
v  -1.103498 3.850000 1.500000
v  -1.156619 3.850000 1.301749
v  -1.301749 3.900000 1.156619
v  -1.301749 3.850000 1.156619
v  -1.500000 3.900000 1.103498
v  -1.500000 3.850000 1.103498
v  -1.199920 3.850000 1.326749
v  -1.153498 3.850000 1.500000
v  -1.153498 3.800000 1.500000
v  -1.199920 3.800000 1.326749
v  -1.326749 3.850000 1.199920
v  -1.326749 3.800000 1.199920
v  -1.500000 3.850000 1.153498
v  -1.500000 3.800000 1.153498
v  -1.153498 3.999999 1.500000
v  -1.199920 3.999999 1.326749
v  -1.326749 3.999999 1.199920
v  -1.500000 3.999999 1.153498
v  -1.203498 3.800000 1.500000
v  -1.243221 3.800000 1.351749
v  -1.351749 3.800000 1.243221
v  -1.500000 3.800000 1.203498
v  -1.103498 3.999999 1.500000
v  -1.156619 3.999999 1.301749
v  -1.301749 3.999999 1.156619
v  -1.500000 3.999999 1.103498
v  -1.053498 3.999999 1.500000
v  -1.113317 3.999999 1.276749
v  -1.276749 3.999999 1.113317
v  -1.500000 3.999999 1.053498
# 94 vertices

vn 0.866025 0.000000 -0.500000
vn 0.965926 0.000000 -0.258819
vn 0.500000 0.000000 -0.866025
vn 0.258819 0.000000 -0.965926
vn 0.000000 -1.000000 -0.000000
vn 0.000000 1.000000 -0.000000
vn 0.000002 1.000000 -0.000001
vn 0.000001 1.000000 -0.000002
vn 0.000003 1.000000 -0.000003
vn 0.866025 -0.000000 -0.500000
vn 0.500000 0.000000 -0.866026
vn -0.000001 -1.000000 -0.000001
vn 0.000000 -1.000000 -0.000001
# 13 vertex normals

vt 0.833333 0.000000 1.000000
vt 0.833333 0.053694 1.000000
vt 0.750000 0.053694 1.000000
vt 0.750000 0.000000 1.000000
vt 0.916667 0.000000 1.000000
vt 0.916667 0.053694 1.000000
vt 1.000000 0.000000 1.000000
vt 1.000000 0.053694 1.000000
vt 0.250000 0.933013 -0.250000
vt 0.500000 1.000000 -0.250000
vt 0.500000 0.750000 -0.250000
vt 0.375000 0.716506 -0.250000
vt 0.066987 0.750000 -0.250000
vt 0.283494 0.625000 -0.250000
vt 0.000000 0.500000 -0.250000
vt 0.250000 0.500000 -0.250000
vt 0.500000 0.500000 -0.250000
vt 0.500000 1.000000 0.250000
vt 0.250000 0.933013 0.250000
vt 0.375000 0.716506 0.250000
vt 0.500000 0.750000 0.250000
vt 0.066987 0.750000 0.250000
vt 0.283494 0.625000 0.250000
vt 0.000000 0.500000 0.250000
vt 0.250000 0.500000 0.250000
vt 0.500000 0.500000 0.250000
vt 0.833333 0.563791 1.000000
vt 0.750000 0.563791 1.000000
vt 0.750000 0.510097 1.000000
vt 0.833333 0.510097 1.000000
vt 0.916667 0.563791 1.000000
vt 0.916667 0.510097 1.000000
vt 1.000000 0.563791 1.000000
vt 1.000000 0.510097 1.000000
vt 0.833333 1.000000 1.000000
vt 0.750000 1.000000 1.000000
vt 0.750000 0.990198 1.000000
vt 0.833333 0.990198 1.000000
vt 0.916667 1.000000 1.000000
vt 0.916667 0.990198 1.000000
vt 1.000000 1.000000 1.000000
vt 1.000000 0.990198 1.000000
vt 0.750000 0.980396 1.000000
vt 0.833333 0.980396 1.000000
vt 0.916667 0.980396 1.000000
vt 1.000000 0.980396 1.000000
vt 0.750000 0.970593 1.000000
vt 0.833333 0.970593 1.000000
vt 0.916667 0.970593 1.000000
vt 1.000000 0.970593 1.000000
vt 0.750000 0.960791 1.000000
vt 0.833333 0.960791 1.000000
vt 0.916667 0.960791 1.000000
vt 1.000000 0.960791 1.000000
# 54 texture coords

g Object30
usemtl Marble_Light
s 8
f 33/33/9 34/34/9 35/35/10 
f 35/35/10 36/36/10 33/33/9 
f 37/37/11 38/38/11 34/34/9 
f 34/34/9 33/33/9 37/37/11 
f 39/39/12 40/40/12 38/38/11 
f 38/38/11 37/37/11 39/39/12 
s 1
f 41/41/13 42/42/13 43/43/13 
f 43/43/13 44/44/13 41/41/13 
f 45/45/13 41/41/13 44/44/13 
f 44/44/13 46/46/13 45/45/13 
f 47/47/13 45/45/13 46/46/13 
f 46/46/13 48/48/13 47/47/13 
f 44/44/13 43/43/13 49/49/13 
f 46/46/13 44/44/13 49/49/13 
f 48/48/13 46/46/13 49/49/13 
f 50/50/14 51/51/14 52/52/15 
f 52/52/15 53/53/15 50/50/14 
f 51/51/14 54/54/14 55/55/16 
f 55/55/16 52/52/15 51/51/14 
f 54/54/14 56/56/14 57/57/16 
f 57/57/16 55/55/16 54/54/14 
f 53/53/15 52/52/15 58/58/17 
f 52/52/15 55/55/16 58/58/17 
f 55/55/16 57/57/16 58/58/17 
s off
f 42/42/13 41/41/13 33/33/13 
f 33/33/13 36/36/13 42/42/13 
f 41/41/13 45/45/13 37/37/13 
f 37/37/13 33/33/13 41/41/13 
f 45/45/13 47/47/13 39/39/13 
f 39/39/13 37/37/13 45/45/13 
f 59/34/14 60/35/14 35/35/14 
f 35/35/14 34/34/14 59/34/14 
f 61/40/14 62/38/14 38/38/14 
f 38/38/14 40/40/14 61/40/14 
f 62/38/14 59/34/14 34/34/14 
f 34/34/14 38/38/14 62/38/14 
s 8
f 63/59/18 64/60/10 65/61/10 
f 65/61/10 66/62/18 63/59/18 
f 67/63/11 63/59/18 66/62/18 
f 66/62/18 68/64/11 67/63/11 
f 69/65/12 67/63/11 68/64/11 
f 68/64/11 70/66/12 69/65/12 
s off
f 71/59/14 72/60/14 64/60/14 
f 64/60/14 63/59/14 71/59/14 
f 73/65/14 74/63/14 67/63/14 
f 67/63/14 69/65/14 73/65/14 
f 74/63/14 71/59/14 63/59/14 
f 63/59/14 67/63/14 74/63/14 
f 75/61/13 76/62/13 66/62/13 
f 66/62/13 65/61/13 75/61/13 
f 76/62/13 77/64/13 68/64/13 
f 68/64/13 66/62/13 76/62/13 
f 77/64/13 78/66/13 70/66/13 
f 70/66/13 68/64/13 77/64/13 
s 8
f 79/67/9 80/68/10 81/69/10 
f 81/69/10 82/70/9 79/67/9 
f 83/71/11 79/67/9 82/70/9 
f 82/70/9 84/72/11 83/71/11 
f 85/73/12 83/71/11 84/72/11 
f 84/72/11 86/74/12 85/73/12 
f 87/70/9 88/69/10 89/75/10 
f 89/75/10 90/76/9 87/70/9 
f 91/72/11 87/70/9 90/76/9 
f 90/76/9 92/77/19 91/72/11 
f 93/74/12 91/72/11 92/77/19 
f 92/77/19 94/78/12 93/74/12 
f 95/76/9 96/75/10 97/79/10 
f 97/79/10 98/80/9 95/76/9 
f 99/77/11 95/76/9 98/80/9 
f 98/80/9 100/81/11 99/77/11 
f 101/78/12 99/77/11 100/81/11 
f 100/81/11 102/82/12 101/78/12 
f 103/80/9 104/79/10 105/83/10 
f 105/83/10 106/84/9 103/80/9 
f 107/81/11 103/80/9 106/84/9 
f 106/84/9 108/85/11 107/81/11 
f 109/82/12 107/81/11 108/85/11 
f 108/85/11 110/86/12 109/82/12 
s off
f 51/51/14 50/50/14 111/68/14 
f 111/68/14 112/67/14 51/51/14 
f 56/56/14 54/54/14 113/71/14 
f 113/71/14 114/73/14 56/56/14 
f 54/54/14 51/51/14 112/67/14 
f 112/67/14 113/71/14 54/54/14 
f 115/83/20 116/84/20 106/84/20 
f 106/84/21 105/83/21 115/83/21 
f 116/84/13 117/85/13 108/85/13 
f 108/85/13 106/84/13 116/84/13 
f 117/85/13 118/86/13 110/86/13 
f 110/86/13 108/85/13 117/85/13 
f 104/79/13 103/80/13 98/80/13 
f 98/80/13 97/79/13 104/79/13 
f 103/80/13 107/81/13 100/81/13 
f 100/81/13 98/80/13 103/80/13 
f 107/81/13 109/82/13 102/82/13 
f 102/82/13 100/81/13 107/81/13 
f 112/67/14 111/68/14 119/68/14 
f 119/68/14 120/67/14 112/67/14 
f 114/73/14 113/71/14 121/71/14 
f 121/71/14 122/73/14 114/73/14 
f 113/71/14 112/67/14 120/67/14 
f 120/67/14 121/71/14 113/71/14 
f 96/75/13 95/76/13 90/76/13 
f 90/76/13 89/75/13 96/75/13 
f 95/76/13 99/77/13 92/77/13 
f 92/77/13 90/76/13 95/76/13 
f 99/77/13 101/78/13 94/78/13 
f 94/78/13 92/77/13 99/77/13 
f 120/67/14 119/68/14 123/68/14 
f 123/68/14 124/67/14 120/67/14 
f 122/73/14 121/71/14 125/71/14 
f 125/71/14 126/73/14 122/73/14 
f 121/71/14 120/67/14 124/67/14 
f 124/67/14 125/71/14 121/71/14 
f 88/69/13 87/70/13 82/70/13 
f 82/70/13 81/69/13 88/69/13 
f 87/70/13 91/72/13 84/72/13 
f 84/72/13 82/70/13 87/70/13 
f 91/72/13 93/74/13 86/74/13 
f 86/74/13 84/72/13 91/72/13 
f 124/67/14 123/68/14 80/68/14 
f 80/68/14 79/67/14 124/67/14 
f 126/73/14 125/71/14 83/71/14 
f 83/71/14 85/73/14 126/73/14 
f 125/71/14 124/67/14 79/67/14 
f 79/67/14 83/71/14 125/71/14 
# 126 faces

#
# object Object14
#

v  1.500000 0.000000 1.500000
v  1.500000 0.000000 -1.500000
v  -1.500000 0.000000 -1.500000
v  -1.500000 0.000000 1.500000
# 4 vertices

vn 0.000000 1.000000 -0.000000
# 1 vertex normals

vt 3.998002 2.000000 2.000000
vt 3.998002 3.998001 2.000000
vt 2.000000 3.998002 2.000000
vt 2.000000 2.000000 2.000000
# 4 texture coords

g Object14
usemtl Tiles01
s 2
f 127/87/22 128/88/22 129/89/22 
f 129/89/22 130/90/22 127/87/22 
# 2 faces

#
# object Object22
#

v  1.500000 4.000000 1.500000
v  -1.500000 4.000000 1.500000
v  -1.500000 4.000000 -1.500000
v  1.500000 4.000000 -1.500000
# 4 vertices

vn 0.000000 -1.000000 -0.000000
# 1 vertex normals

vt 3.998002 2.000000 2.000000
vt 2.000000 2.000000 2.000000
vt 2.000000 3.998002 2.000000
vt 3.998002 3.998001 2.000000
# 4 texture coords

g Object22
usemtl Tiles01
s 4
f 131/91/23 132/92/23 133/93/23 
f 133/93/23 134/94/23 131/91/23 
# 2 faces

