# 3ds Max Wavefront OBJ Exporter v0.97b - (c)2007 guruware
# File Created: 05.11.2011 11:56:12

mtllib BasicStraight.mtl

#
# object Box01
#

v  0.250000 -0.250000 0.100000
v  -0.150000 -0.250000 0.100000
v  -0.150000 -0.250000 -0.100000
v  0.250000 -0.250000 -0.100000
v  0.250000 0.250000 0.100000
v  0.250000 0.250000 -0.100000
v  -0.150000 0.250000 -0.100000
v  -0.150000 0.250000 0.100000
# 8 vertices

vn 0.000000 -1.000000 -0.000000
vn 0.000000 1.000000 -0.000000
vn 1.000000 0.000000 -0.000000
vn -0.000000 0.000000 -1.000000
vn -1.000000 0.000000 0.000000
vn 0.000000 0.000000 1.000000
# 6 vertex normals

vt 0.600000 0.500000 0.500000
vt 0.600000 0.900000 0.500000
vt 0.400000 0.900000 0.500000
vt 0.400000 0.500000 0.500000
vt 0.400000 0.500000 1.000000
vt 0.600000 0.500000 1.000000
vt 0.600000 0.900000 1.000000
vt 0.400000 0.900000 1.000000
vt 0.600000 1.000000 0.500000
vt 0.400000 1.000000 0.500000
vt 0.500000 0.500000 0.600000
vt 0.900000 0.500000 0.600000
vt 0.900000 1.000000 0.600000
vt 0.500000 1.000000 0.600000
vt 0.400000 0.500000 0.900000
vt 0.600000 0.500000 0.900000
vt 0.600000 1.000000 0.900000
vt 0.400000 1.000000 0.900000
vt 0.100000 0.500000 0.400000
vt 0.500000 0.500000 0.400000
vt 0.500000 1.000000 0.400000
vt 0.100000 1.000000 0.400000
# 22 texture coords

g Box01
usemtl 01___Default
s 2
f 1/1/1 2/2/1 3/3/1 
f 3/3/1 4/4/1 1/1/1 
s 4
f 5/5/2 6/6/2 7/7/2 
f 7/7/2 8/8/2 5/5/2 
s 8
f 1/4/3 4/1/3 6/9/3 
f 6/9/3 5/10/3 1/4/3 
s 16
f 4/11/4 3/12/4 7/13/4 
f 7/13/4 6/14/4 4/11/4 
s 32
f 3/15/5 2/16/5 8/17/5 
f 8/17/5 7/18/5 3/15/5 
s 64
f 2/19/6 1/20/6 5/21/6 
f 5/21/6 8/22/6 2/19/6 
# 12 faces

